<svg xmlns="http://www.w3.org/2000/svg" viewBox="0 0 64 64" width="64" height="64">
  <!-- Background -->
  <rect x="2" y="2" width="60" height="60" rx="8" fill="#1a1a2e" stroke="#2d2d4a" stroke-width="2"/>
  
  <!-- Star burst rays -->
  <g stroke="#fbbf24" stroke-width="2" stroke-linecap="round">
    <line x1="32" y1="8" x2="32" y2="18"/>
    <line x1="32" y1="46" x2="32" y2="56"/>
    <line x1="8" y1="32" x2="18" y2="32"/>
    <line x1="46" y1="32" x2="56" y2="32"/>
    <line x1="15" y1="15" x2="22" y2="22"/>
    <line x1="42" y1="42" x2="49" y2="49"/>
    <line x1="49" y1="15" x2="42" y2="22"/>
    <line x1="22" y1="42" x2="15" y2="49"/>
  </g>
  
  <!-- Center star -->
  <polygon points="32,20 35,28 44,28 37,34 40,43 32,38 24,43 27,34 20,28 29,28" fill="#fbbf24"/>
  
  <!-- Inner glow -->
  <circle cx="32" cy="32" r="8" fill="#fef3c7" opacity="0.3"/>
</svg>
